<svg width="100" height="100" viewBox="0 0 100 100" fill="none" xmlns="http://www.w3.org/2000/svg">
<rect width="100" height="100" rx="39" fill="#FF5A13"/>
<path d="M40.368 33.016H52.32C54.496 33.016 56.288 33.32 57.696 33.928C59.104 34.504 60.208 35.256 61.008 36.184C61.84 37.08 62.416 38.104 62.736 39.256C63.056 40.376 63.216 41.464 63.216 42.52C63.216 43.576 63.056 44.68 62.736 45.832C62.416 46.952 61.84 47.976 61.008 48.904C60.208 49.8 59.104 50.552 57.696 51.16C56.288 51.736 54.496 52.024 52.32 52.024H44.976V67H40.368V33.016ZM44.976 47.992H51.024C51.92 47.992 52.8 47.928 53.664 47.8C54.56 47.64 55.344 47.368 56.016 46.984C56.72 46.6 57.28 46.056 57.696 45.352C58.112 44.616 58.32 43.672 58.32 42.52C58.32 41.368 58.112 40.44 57.696 39.736C57.28 39 56.72 38.44 56.016 38.056C55.344 37.672 54.56 37.416 53.664 37.288C52.8 37.128 51.92 37.048 51.024 37.048H44.976V47.992Z" fill="white"/>
</svg>
