<svg width="12" height="14" viewBox="0 0 12 14" fill="none" xmlns="http://www.w3.org/2000/svg">
<path d="M2.72818 12.8547L2.90977 12.4983L2.90977 12.4983L2.72818 12.8547ZM2.14549 12.272L2.50189 12.0904L2.50189 12.0904L2.14549 12.272ZM9.85484 12.272L9.49843 12.0904L9.49843 12.0904L9.85484 12.272ZM9.27215 12.8547L9.09055 12.4983L9.09055 12.4983L9.27215 12.8547ZM1.3335 3.26667C1.11258 3.26667 0.933496 3.44575 0.933496 3.66667C0.933496 3.88758 1.11258 4.06667 1.3335 4.06667V3.26667ZM10.6668 4.06667C10.8877 4.06667 11.0668 3.88758 11.0668 3.66667C11.0668 3.44575 10.8877 3.26667 10.6668 3.26667V4.06667ZM9.60016 3.66667V10.8667H10.4002V3.66667H9.60016ZM7.86683 12.6H4.1335V13.4H7.86683V12.6ZM1.60016 3.66667V10.8667H2.40016V3.66667H1.60016ZM4.1335 12.6C3.75353 12.6 3.49261 12.5997 3.29034 12.5832C3.09274 12.567 2.98659 12.5374 2.90977 12.4983L2.54658 13.2111C2.75497 13.3173 2.97812 13.3603 3.22519 13.3805C3.4676 13.4003 3.76673 13.4 4.1335 13.4V12.6ZM1.60016 10.8667C1.60016 11.2334 1.59985 11.5326 1.61966 11.775C1.63984 12.022 1.6829 12.2452 1.78908 12.4536L2.50189 12.0904C2.46275 12.0136 2.43314 11.9074 2.417 11.7098C2.40047 11.5076 2.40016 11.2466 2.40016 10.8667H1.60016ZM2.90977 12.4983C2.73415 12.4088 2.59137 12.266 2.50189 12.0904L1.78908 12.4536C1.95527 12.7797 2.22043 13.0449 2.54658 13.2111L2.90977 12.4983ZM9.60016 10.8667C9.60016 11.2466 9.59985 11.5076 9.58332 11.7098C9.56718 11.9074 9.53758 12.0136 9.49843 12.0904L10.2112 12.4536C10.3174 12.2452 10.3605 12.022 10.3807 11.775C10.4005 11.5326 10.4002 11.2334 10.4002 10.8667H9.60016ZM7.86683 13.4C8.2336 13.4 8.53273 13.4003 8.77513 13.3805C9.0222 13.3603 9.24535 13.3173 9.45375 13.2111L9.09055 12.4983C9.01373 12.5374 8.90759 12.567 8.70999 12.5832C8.50772 12.5997 8.2468 12.6 7.86683 12.6V13.4ZM9.49843 12.0904C9.40895 12.266 9.26617 12.4088 9.09055 12.4983L9.45374 13.2111C9.77989 13.0449 10.0451 12.7797 10.2112 12.4536L9.49843 12.0904ZM1.3335 4.06667H2.00016V3.26667H1.3335V4.06667ZM2.00016 4.06667H10.0002V3.26667H2.00016V4.06667ZM10.0002 4.06667H10.6668V3.26667H10.0002V4.06667ZM4.06683 3.13333C4.06683 2.20902 4.89792 1.4 6.00016 1.4V0.6C4.52508 0.6 3.26683 1.70123 3.26683 3.13333H4.06683ZM6.00016 1.4C7.10241 1.4 7.9335 2.20902 7.9335 3.13333H8.7335C8.7335 1.70123 7.47525 0.6 6.00016 0.6V1.4ZM3.26683 3.13333V3.66667H4.06683V3.13333H3.26683ZM7.9335 3.13333V3.66667H8.7335V3.13333H7.9335Z" fill="#D13520"/>
</svg>
