<svg width="16" height="12" viewBox="0 0 16 12" fill="none" xmlns="http://www.w3.org/2000/svg">
<path d="M13.25 2.25C13.25 1.85218 13.092 1.47064 12.8107 1.18934C12.5294 0.908035 12.1478 0.75 11.75 0.75H9.5V2.25H11.75V4.2375L9.125 7.5H6.5V3.75H3.5C1.8425 3.75 0.5 5.0925 0.5 6.75V9H2C2 10.245 3.005 11.25 4.25 11.25C5.495 11.25 6.5 10.245 6.5 9H9.875L13.25 4.7625V2.25ZM4.25 9.75C3.8375 9.75 3.5 9.4125 3.5 9H5C5 9.4125 4.6625 9.75 4.25 9.75ZM5 7.5H2V6.75C2 5.925 2.675 5.25 3.5 5.25H5V7.5ZM13.25 6.75C12.005 6.75 11 7.755 11 9C11 10.245 12.005 11.25 13.25 11.25C14.495 11.25 15.5 10.245 15.5 9C15.5 7.755 14.495 6.75 13.25 6.75ZM13.25 9.75C12.8375 9.75 12.5 9.4125 12.5 9C12.5 8.5875 12.8375 8.25 13.25 8.25C13.6625 8.25 14 8.5875 14 9C14 9.4125 13.6625 9.75 13.25 9.75ZM6.5 3H2.75V1.5H6.5V3Z" fill="#DC6803"/>
</svg>
