<svg width="16" height="16" viewBox="0 0 16 16" fill="none" xmlns="http://www.w3.org/2000/svg">
<path d="M7.99996 4.00008V7.99975M7.99996 7.99975L10.6666 10.0001M7.99996 7.99975C7.99996 7.99996 7.99979 7.99962 7.99996 7.99975ZM0.856849 9.66675C0.732413 9.13131 0.666626 8.57338 0.666626 8.00008C0.666626 7.42678 0.732413 6.86885 0.856849 6.33341M6.66663 0.787666C7.09899 0.708246 7.54463 0.666748 7.99996 0.666748C12.05 0.666748 15.3333 3.94999 15.3333 8.00008C15.3333 12.0502 12.05 15.3334 7.99996 15.3334C7.54463 15.3334 7.09899 15.2919 6.66663 15.2125M4.33329 1.64782C3.33304 2.22643 2.48214 3.03451 1.85258 4.00008M1.85258 12.0001C2.48214 12.9656 3.33304 13.7737 4.33329 14.3523" stroke="#027A48" stroke-width="0.914286" stroke-linecap="round"/>
</svg>
