<svg width="17" height="15" viewBox="0 0 17 15" fill="none" xmlns="http://www.w3.org/2000/svg">
<path d="M0.708344 6.45563L7.43698 1.47231C8.06224 1.00923 8.93778 1.00923 9.56304 1.47231L16.2917 6.45563M3.30557 4.53209V12.2263C3.30557 13.1368 4.08078 13.875 5.03705 13.875H11.963C12.9192 13.875 13.6945 13.1368 13.6945 12.2263V4.53209M7.63427 10.5775H9.36575C9.84389 10.5775 10.2315 10.2084 10.2315 9.75313V8.10438C10.2315 7.64909 9.84389 7.28001 9.36575 7.28001H7.63427C7.15613 7.28001 6.76853 7.64909 6.76853 8.10438V9.75313C6.76853 10.2084 7.15613 10.5775 7.63427 10.5775Z" stroke="#667085" stroke-width="0.894737" stroke-linecap="round"/>
</svg>
