<svg width="33" height="32" viewBox="0 0 33 32" fill="none" xmlns="http://www.w3.org/2000/svg">
<path d="M20.625 23.1646L10.7767 17.8084L0.928307 12.4523L1.32384 14.25L3.375 15.3502V15.3224L4.73982 16.0822L4.875 16.1547L8.12148 17.896L8.23373 17.9409C8.24356 17.9449 8.25 17.9544 8.25 17.965L10.0123 18.9102L11.6215 19.7733L13.1248 20.5797L14.625 21.3843L16.125 22.1889L17.625 22.9934L20.25 24.4014L20.625 23.1646Z" fill="#992615"/>
<path d="M32.25 16.9071L21.375 23.5724L20.625 23.1646L20.25 24.4014L18 31.8224C22 29.6974 30 25.2974 30 24.6974C30 24.0974 31.5 19.2539 32.25 16.9071Z" fill="#B42318"/>
<path d="M3 9.69753L6 8.19753C5.84727 7.58661 5.72357 6.95358 5.63584 6.32245L0 9.32245L21.375 21.6974L33 15.3224L25.625 11.1974L25.875 12.6974L30.375 15.3224L25.875 17.9474L21.375 20.5724L20.25 19.9066L12.9737 15.6003L6.69364 11.8835L3 9.69753Z" fill="#F04438"/>
<path d="M21.375 21.6974V23.5724L32.25 16.9071L33 16.4474V15.3224L21.375 21.6974Z" fill="#B42318"/>
<path d="M6 8.19753L3 9.69753L6.69364 11.8835C6.55589 11.0244 6.19886 9.1918 6 8.19753Z" fill="#912018"/>
<path d="M30.375 15.3224L25.875 12.6974V17.9474L30.375 15.3224Z" fill="#912018"/>
<path d="M0 9.32245V11.9474L0.928307 12.4523L10.7767 17.8084L20.625 23.1646L21.375 23.5724V21.6974L0 9.32245Z" fill="#FDA29B"/>
<path d="M5.63584 6.32245C5.72357 6.95358 5.84727 7.58661 6 8.19753C6.19886 9.1918 6.55589 11.0244 6.69364 11.8835L12.9737 15.6003L13.0994 10.0724C12.479 9.77245 10.1079 10.6974 9 11.1974C9.74147 10.1974 11.602 8.45995 13.1122 9.50995L13.125 8.94745C13.0464 8.00425 12.9275 7.12694 12.7764 6.32245C12.4976 6.02245 9.89262 7.44745 8.625 8.19745C8.98043 7.37478 10.2597 5.62305 12.5331 5.19745C12.4882 5.01536 12.4415 4.83799 12.3932 4.66544C12.315 4.38626 12.2326 4.1197 12.1464 3.86622C11.0635 3.40124 8.84759 4.80996 7.875 5.57245C7.87265 4.69745 8.61866 2.87245 11.6215 2.57245C11.1642 1.63164 10.6478 0.991597 10.125 0.697533C5.97664 -1.63592 5.07735 2.30464 5.63584 6.32245Z" fill="#FBC042"/>
<path d="M12.1464 3.86622C12.0347 3.53767 11.9167 3.23108 11.7936 2.94745C11.7373 2.81761 11.6799 2.69258 11.6215 2.57245C8.61866 2.87245 7.87265 4.69745 7.875 5.57245C8.84759 4.80996 11.0635 3.40124 12.1464 3.86622Z" fill="#F9CF78"/>
<path d="M8.625 8.19745C9.89262 7.44745 12.4976 6.02245 12.7764 6.32245C12.7027 5.92984 12.6213 5.55457 12.5331 5.19745C10.2597 5.62305 8.98043 7.37478 8.625 8.19745Z" fill="#FCE49B"/>
<path d="M9 11.1974C10.1079 10.6974 12.479 9.77245 13.0994 10.0724L13.1122 9.50995C11.602 8.45995 9.74147 10.1974 9 11.1974Z" fill="#FFE19B"/>
<path d="M22.875 9.69745L16.125 5.57245L15.9014 5.82398L15 6.83807L13.125 8.94745L20.25 13.4474L22.875 9.69745Z" fill="#D4E2FB"/>
<path d="M20.25 13.4474L13.125 8.94745L13.1122 9.50995L13.0994 10.0724L12.9737 15.6003L20.25 19.9066V13.4474Z" fill="#B4C6E5"/>
<path d="M25.5 10.4474L20.25 13.4474V19.9066L21.375 20.5724L25.875 17.9474V12.6974L25.625 11.1974L25.5 10.4474Z" fill="#8FB2F1"/>
<path d="M22.875 9.69745L20.25 13.4474L25.5 10.4474L22.875 9.69745Z" fill="#004CD4"/>
<path d="M16.125 5.57245L22.875 9.69745V7.44745L16.125 3.69745V5.57245Z" fill="#6EA2FF"/>
<path d="M12.3932 4.66544L15 6.83807L15.9014 5.82398L11.7936 2.94745C11.9167 3.23108 12.0347 3.53767 12.1464 3.86622C12.2326 4.1197 12.315 4.38626 12.3932 4.66544Z" fill="#F04438"/>
<path d="M13.125 8.94745L15 6.83807L12.3932 4.66544C12.4415 4.83799 12.4882 5.01536 12.5331 5.19745C12.6213 5.55457 12.7027 5.92984 12.7764 6.32245C12.9275 7.12694 13.0464 8.00425 13.125 8.94745Z" fill="#912018"/>
<path d="M4.73982 16.0822L3.375 15.3224V15.3502L3.37867 15.3521L4.875 16.1547L4.73982 16.0822Z" fill="#FDA29B"/>
<path d="M3.375 23.5724L18 31.8224L20.25 24.4014L17.625 22.9934L17.4167 27.8355L8.70833 23.7105L4.125 21.3843L3.375 15.3502L1.32384 14.25L3.375 23.5724Z" fill="#F04438"/>
<path d="M4.125 21.3843L8.70833 23.7105L17.4167 27.8355L17.625 22.9934L16.125 22.1889L14.625 21.3843L13.1248 20.5797L11.6215 19.7733L10.0123 18.9102L8.25 17.965L8.12148 17.896L4.875 16.1547L3.37867 15.3521L4.125 21.3843Z" fill="#FDA29B"/>
</svg>
