<svg width="16" height="19" viewBox="0 0 16 19" fill="none" xmlns="http://www.w3.org/2000/svg">
<path d="M4.875 4.25024H11.875M4.875 7.75024H11.875M4.875 11.2502H11.875M3.125 0.750244H13.625C14.5915 0.750244 15.375 1.53375 15.375 2.50024V15.4187C15.375 16.7196 14.006 17.5657 12.8424 16.9839L12.6576 16.8916C12.1649 16.6452 11.585 16.6452 11.0924 16.8916L9.15762 17.8589C8.66495 18.1053 8.08505 18.1053 7.59238 17.8589L5.65762 16.8916C5.16495 16.6452 4.58505 16.6452 4.09238 16.8916L3.90762 16.9839C2.74405 17.5657 1.375 16.7196 1.375 15.4187V2.50024C1.375 1.53375 2.1585 0.750244 3.125 0.750244Z" stroke="#667085" stroke-linecap="round"/>
</svg>
