<svg width="35" height="32" viewBox="0 0 35 32" fill="none" xmlns="http://www.w3.org/2000/svg">
<path d="M27.0139 17.1791C27.0139 17.0934 27.0833 17.024 27.169 17.024C27.2546 17.024 27.3241 17.0934 27.3241 17.1791V19.7713C27.3241 19.8569 27.2546 19.9263 27.169 19.9263C27.0833 19.9263 27.0139 19.8569 27.0139 19.7713V17.1791Z" fill="#D1E9FF"/>
<path d="M27.7893 17.1791C27.7893 17.0934 27.8587 17.024 27.9443 17.024C28.03 17.024 28.0994 17.0934 28.0994 17.1791V19.7713C28.0994 19.8569 28.03 19.9263 27.9443 19.9263C27.8587 19.9263 27.7893 19.8569 27.7893 19.7713V17.1791Z" fill="#D1E9FF"/>
<path d="M28.4871 17.1791C28.4871 17.0934 28.5565 17.024 28.6421 17.024C28.7278 17.024 28.7972 17.0934 28.7972 17.1791V19.7713C28.7972 19.8569 28.7278 19.9263 28.6421 19.9263C28.5565 19.9263 28.4871 19.8569 28.4871 19.7713V17.1791Z" fill="#D1E9FF"/>
<path d="M29.2624 17.1791C29.2624 17.0934 29.3319 17.024 29.4175 17.024C29.5031 17.024 29.5726 17.0934 29.5726 17.1791V19.7713C29.5726 19.8569 29.5031 19.9263 29.4175 19.9263C29.3319 19.9263 29.2624 19.8569 29.2624 19.7713V17.1791Z" fill="#D1E9FF"/>
<path d="M30.0378 17.1791C30.0378 17.0934 30.1072 17.024 30.1928 17.024C30.2785 17.024 30.3479 17.0934 30.3479 17.1791V19.7713C30.3479 19.8569 30.2785 19.9263 30.1928 19.9263C30.1072 19.9263 30.0378 19.8569 30.0378 19.7713V17.1791Z" fill="#D1E9FF"/>
<path d="M30.7356 17.1791C30.7356 17.0934 30.805 17.024 30.8907 17.024C30.9763 17.024 31.0457 17.0934 31.0457 17.1791V19.7713C31.0457 19.8569 30.9763 19.9263 30.8907 19.9263C30.805 19.9263 30.7356 19.8569 30.7356 19.7713V17.1791Z" fill="#D1E9FF"/>
<path d="M31.5109 17.1791C31.5109 17.0934 31.5804 17.024 31.666 17.024C31.7516 17.024 31.8211 17.0934 31.8211 17.1791V19.7713C31.8211 19.8569 31.7516 19.9263 31.666 19.9263C31.5804 19.9263 31.5109 19.8569 31.5109 19.7713V17.1791Z" fill="#D1E9FF"/>
<path d="M32.2087 17.1791C32.2087 17.0934 32.2782 17.024 32.3638 17.024C32.4495 17.024 32.5189 17.0934 32.5189 17.1791V19.7713C32.5189 19.8569 32.4495 19.9263 32.3638 19.9263C32.2782 19.9263 32.2087 19.8569 32.2087 19.7713V17.1791Z" fill="#D1E9FF"/>
<path d="M32.9841 17.1791C32.9841 17.0934 33.0535 17.024 33.1392 17.024C33.2248 17.024 33.2942 17.0934 33.2942 17.1791V19.7713C33.2942 19.8569 33.2248 19.9263 33.1392 19.9263C33.0535 19.9263 32.9841 19.8569 32.9841 19.7713V17.1791Z" fill="#D1E9FF"/>
<path d="M33.6819 17.1791C33.6819 17.0934 33.7513 17.024 33.837 17.024C33.9226 17.024 33.992 17.0934 33.992 17.1791V19.7713C33.992 19.8569 33.9226 19.9263 33.837 19.9263C33.7513 19.9263 33.6819 19.8569 33.6819 19.7713V17.1791Z" fill="#D1E9FF"/>
<path d="M34.3022 17.1791C34.3022 17.0934 34.3716 17.024 34.4573 17.024C34.5429 17.024 34.6123 17.0934 34.6123 17.1791V19.7713C34.6123 19.8569 34.5429 19.9263 34.4573 19.9263C34.3716 19.9263 34.3022 19.8569 34.3022 19.7713V17.1791Z" fill="#D1E9FF"/>
<path d="M14.1889 11.7998H17.3678V14.4119H20.0815V17.2417H17.3678V19.8538H14.1889V17.2417H11.3201V14.4119H14.1889V11.7998Z" fill="#2E90FA"/>
<path d="M10.7773 0.408203V4.68913H12.0179V2.07704V1.35146L16.0109 1.31518L20.004 1.2789L20.0403 2.07704L20.159 4.68913H21.2445V2.07704V1.24262V0.408203H10.7773Z" fill="#2E90FA"/>
<path d="M21.2445 2.07704H22.33V4.68913H23.5706L23.4155 1.2789L21.2445 1.24262V2.07704Z" fill="#2E90FA"/>
<path d="M20.004 1.2789L13.0258 1.3423V2.07704V4.68913H13.6074H14.1889V2.07704H17.1146H20.0403L20.004 1.2789Z" fill="#2E90FA"/>
<path d="M5.10336 25.2956H3.37276C1.51004 25.2956 0 26.7088 0 28.4519C0 30.1951 1.51004 31.6082 3.37276 31.6082H8.6839V25.2956H5.10336Z" fill="#2E90FA"/>
<path d="M14.3052 25.2956H9.76938V31.6082H14.3052C15.3226 31.6082 16.2349 31.1866 16.8533 30.5198C16.8717 30.5 16.8899 30.4799 16.9077 30.4596C16.9522 30.4092 16.9951 30.3574 17.0362 30.3044C17.4399 29.7841 17.6779 29.144 17.6779 28.4519C17.6779 26.7088 16.1679 25.2956 14.3052 25.2956Z" fill="#175CD3"/>
<path d="M26.5169 4.68913H23.5706L23.6024 16.6612H26.8763L26.5169 4.68913Z" fill="#B2DDFF"/>
<path d="M24.6879 20.6896C24.6879 20.9894 24.4449 21.2324 24.1451 21.2324C23.8454 21.2324 23.6024 21.4754 23.6024 21.7751V23.5542H27.0832L26.9939 20.5794H24.6879V20.6896Z" fill="#2E90FA"/>
<path d="M23.6024 23.5542V27.9803H27.216L27.1659 26.3115H27.0303C26.85 26.3115 26.7038 26.1653 26.7038 25.9849C26.7038 25.8046 26.85 25.6584 27.0303 25.6584H27.1463L27.1354 25.2956H26.245C25.9845 25.2956 25.7734 25.0845 25.7734 24.824C25.7734 24.5635 25.9845 24.3524 26.245 24.3524H27.1071L27.0832 23.5542H23.6024Z" fill="#B2DDFF"/>
<path d="M35 27.9803V23.5542H27.0832L27.1071 24.3524H32.5125C32.7729 24.3524 32.9841 24.5635 32.9841 24.824C32.9841 25.0845 32.7729 25.2956 32.5125 25.2956H27.1354L27.1463 25.6584H31.8822C32.0626 25.6584 32.2087 25.8046 32.2087 25.9849C32.2087 26.1653 32.0626 26.3115 31.8822 26.3115H27.1659L27.216 27.9803H35Z" fill="#B2DDFF"/>
<path d="M32.5125 25.2956C32.7729 25.2956 32.9841 25.0845 32.9841 24.824C32.9841 24.5635 32.7729 24.3524 32.5125 24.3524H27.1071L27.1354 25.2956H32.5125Z" fill="#EFF8FF"/>
<path d="M26.245 24.3524C25.9845 24.3524 25.7734 24.5635 25.7734 24.824C25.7734 25.0845 25.9845 25.2956 26.245 25.2956H27.1354L27.1071 24.3524H26.245Z" fill="#EFF8FF"/>
<path d="M31.8822 26.3115C32.0626 26.3115 32.2087 26.1653 32.2087 25.9849C32.2087 25.8046 32.0626 25.6584 31.8822 25.6584H27.1463L27.1659 26.3115H31.8822Z" fill="#EFF8FF"/>
<path d="M27.0303 25.6584C26.85 25.6584 26.7038 25.8046 26.7038 25.9849C26.7038 26.1653 26.85 26.3115 27.0303 26.3115H27.1659L27.1463 25.6584H27.0303Z" fill="#F5FAFF"/>
<path d="M24.6879 20.2891V20.5794H26.9939L26.9852 20.2891H24.6879Z" fill="#2E90FA"/>
<path fill-rule="evenodd" clip-rule="evenodd" d="M23.6024 19.8294C23.6024 20.0833 23.8082 20.2891 24.0621 20.2891H24.6879H26.9852L26.8763 16.6612H23.6024V19.8294ZM24.2227 17.1791C24.2227 17.0934 24.1532 17.024 24.0676 17.024C23.982 17.024 23.9125 17.0934 23.9125 17.1791V19.7713C23.9125 19.8569 23.982 19.9263 24.0676 19.9263C24.1532 19.9263 24.2227 19.8569 24.2227 19.7713V17.1791ZM24.998 17.1791C24.998 17.0934 24.9286 17.024 24.8429 17.024C24.7573 17.024 24.6879 17.0934 24.6879 17.1791V19.7713C24.6879 19.8569 24.7573 19.9263 24.8429 19.9263C24.9286 19.9263 24.998 19.8569 24.998 19.7713V17.1791ZM25.7734 17.1791C25.7734 17.0934 25.7039 17.024 25.6183 17.024C25.5326 17.024 25.4632 17.0934 25.4632 17.1791V19.7713C25.4632 19.8569 25.5326 19.9263 25.6183 19.9263C25.7039 19.9263 25.7734 19.8569 25.7734 19.7713V17.1791ZM26.5487 17.1791C26.5487 17.0934 26.4793 17.024 26.3936 17.024C26.308 17.024 26.2386 17.0934 26.2386 17.1791V19.7713C26.2386 19.8569 26.308 19.9263 26.3936 19.9263C26.4793 19.9263 26.5487 19.8569 26.5487 19.7713V17.1791Z" fill="#84CAFF"/>
<path fill-rule="evenodd" clip-rule="evenodd" d="M34.5403 20.2891C34.7942 20.2891 35 20.0833 35 19.8294V17.5312C35 17.0507 34.6105 16.6612 34.13 16.6612H26.8763L26.9852 20.2891H33.9145H34.5403ZM27.3241 17.1791C27.3241 17.0934 27.2546 17.024 27.169 17.024C27.0833 17.024 27.0139 17.0934 27.0139 17.1791V19.7713C27.0139 19.8569 27.0833 19.9263 27.169 19.9263C27.2546 19.9263 27.3241 19.8569 27.3241 19.7713V17.1791ZM28.0994 17.1791C28.0994 17.0934 28.03 17.024 27.9443 17.024C27.8587 17.024 27.7893 17.0934 27.7893 17.1791V19.7713C27.7893 19.8569 27.8587 19.9263 27.9443 19.9263C28.03 19.9263 28.0994 19.8569 28.0994 19.7713V17.1791ZM28.7972 17.1791C28.7972 17.0934 28.7278 17.024 28.6421 17.024C28.5565 17.024 28.4871 17.0934 28.4871 17.1791V19.7713C28.4871 19.8569 28.5565 19.9263 28.6421 19.9263C28.7278 19.9263 28.7972 19.8569 28.7972 19.7713V17.1791ZM29.5726 17.1791C29.5726 17.0934 29.5031 17.024 29.4175 17.024C29.3319 17.024 29.2624 17.0934 29.2624 17.1791V19.7713C29.2624 19.8569 29.3319 19.9263 29.4175 19.9263C29.5031 19.9263 29.5726 19.8569 29.5726 19.7713V17.1791ZM30.3479 17.1791C30.3479 17.0934 30.2785 17.024 30.1928 17.024C30.1072 17.024 30.0378 17.0934 30.0378 17.1791V19.7713C30.0378 19.8569 30.1072 19.9263 30.1928 19.9263C30.2785 19.9263 30.3479 19.8569 30.3479 19.7713V17.1791ZM31.0457 17.1791C31.0457 17.0934 30.9763 17.024 30.8907 17.024C30.805 17.024 30.7356 17.0934 30.7356 17.1791V19.7713C30.7356 19.8569 30.805 19.9263 30.8907 19.9263C30.9763 19.9263 31.0457 19.8569 31.0457 19.7713V17.1791ZM31.8211 17.1791C31.8211 17.0934 31.7516 17.024 31.666 17.024C31.5804 17.024 31.5109 17.0934 31.5109 17.1791V19.7713C31.5109 19.8569 31.5804 19.9263 31.666 19.9263C31.7516 19.9263 31.8211 19.8569 31.8211 19.7713V17.1791ZM32.5189 17.1791C32.5189 17.0934 32.4495 17.024 32.3638 17.024C32.2782 17.024 32.2087 17.0934 32.2087 17.1791V19.7713C32.2087 19.8569 32.2782 19.9263 32.3638 19.9263C32.4495 19.9263 32.5189 19.8569 32.5189 19.7713V17.1791ZM33.2942 17.1791C33.2942 17.0934 33.2248 17.024 33.1392 17.024C33.0535 17.024 32.9841 17.0934 32.9841 17.1791V19.7713C32.9841 19.8569 33.0535 19.9263 33.1392 19.9263C33.2248 19.9263 33.2942 19.8569 33.2942 19.7713V17.1791ZM33.992 17.1791C33.992 17.0934 33.9226 17.024 33.837 17.024C33.7513 17.024 33.6819 17.0934 33.6819 17.1791V19.7713C33.6819 19.8569 33.7513 19.9263 33.837 19.9263C33.9226 19.9263 33.992 19.8569 33.992 19.7713V17.1791ZM34.6123 17.1791C34.6123 17.0934 34.5429 17.024 34.4573 17.024C34.3716 17.024 34.3022 17.0934 34.3022 17.1791V19.7713C34.3022 19.8569 34.3716 19.9263 34.4573 19.9263C34.5429 19.9263 34.6123 19.8569 34.6123 19.7713V17.1791Z" fill="#84CAFF"/>
<path d="M23.9125 17.1791C23.9125 17.0934 23.982 17.024 24.0676 17.024C24.1532 17.024 24.2227 17.0934 24.2227 17.1791V19.7713C24.2227 19.8569 24.1532 19.9263 24.0676 19.9263C23.982 19.9263 23.9125 19.8569 23.9125 19.7713V17.1791Z" fill="#D1E9FF"/>
<path d="M24.6879 17.1791C24.6879 17.0934 24.7573 17.024 24.8429 17.024C24.9286 17.024 24.998 17.0934 24.998 17.1791V19.7713C24.998 19.8569 24.9286 19.9263 24.8429 19.9263C24.7573 19.9263 24.6879 19.8569 24.6879 19.7713V17.1791Z" fill="#D1E9FF"/>
<path d="M25.4632 17.1791C25.4632 17.0934 25.5326 17.024 25.6183 17.024C25.7039 17.024 25.7734 17.0934 25.7734 17.1791V19.7713C25.7734 19.8569 25.7039 19.9263 25.6183 19.9263C25.5326 19.9263 25.4632 19.8569 25.4632 19.7713V17.1791Z" fill="#D1E9FF"/>
<path d="M26.2386 17.1791C26.2386 17.0934 26.308 17.024 26.3936 17.024C26.4793 17.024 26.5487 17.0934 26.5487 17.1791V19.7713C26.5487 19.8569 26.4793 19.9263 26.3936 19.9263C26.308 19.9263 26.2386 19.8569 26.2386 19.7713V17.1791Z" fill="#D1E9FF"/>
<path d="M33.9145 20.5794V20.2891H26.9852L26.9939 20.5794H33.9145Z" fill="#2E90FA"/>
<path d="M35 21.7751C35 21.4754 34.757 21.2324 34.4573 21.2324C34.1575 21.2324 33.9145 20.9894 33.9145 20.6896V20.5794H26.9939L27.0832 23.5542H35V21.7751Z" fill="#2E90FA"/>
<path d="M23.6024 27.9803V29.7617C23.6024 30.1003 23.8768 30.3747 24.2154 30.3747H27.2879L27.216 27.9803H23.6024Z" fill="#2E90FA"/>
<path fill-rule="evenodd" clip-rule="evenodd" d="M24.1451 21.2324C24.4449 21.2324 24.6879 20.9894 24.6879 20.6896V20.5794V20.2891H24.0621C23.8082 20.2891 23.6024 20.0833 23.6024 19.8294V16.6612L23.5706 4.68913H22.33H21.2445H20.159H14.1889H13.6074H13.0258H12.0179H10.7773H5.66004L5.10336 25.2956H8.6839H9.76938H14.3052C16.1679 25.2956 17.6779 26.7088 17.6779 28.4519C17.6779 29.144 17.4399 29.7841 17.0362 30.3044C16.9951 30.3574 16.9522 30.4092 16.9077 30.4596C16.8899 30.4799 16.8717 30.5 16.8533 30.5198H27.2922L27.2879 30.3747H24.2154C23.8768 30.3747 23.6024 30.1003 23.6024 29.7617V27.9803V23.5542V21.7751C23.6024 21.4754 23.8454 21.2324 24.1451 21.2324ZM17.3678 11.7998H14.1889V14.4119H11.3201V17.2417H14.1889V19.8538H17.3678V17.2417H20.0815V14.4119H17.3678V11.7998Z" fill="#D1E9FF"/>
<path d="M34.387 30.3747C34.7256 30.3747 35 30.1003 35 29.7617V27.9803H27.216L27.2879 30.3747H34.387Z" fill="#2E90FA"/>
</svg>
