<svg width="10" height="16" viewBox="0 0 10 16" fill="none" xmlns="http://www.w3.org/2000/svg">
<path d="M4.33333 3.33325H5.66667M3.13333 14.6666H6.86667C7.6134 14.6666 7.98677 14.6666 8.27199 14.5213C8.52287 14.3934 8.72684 14.1895 8.85467 13.9386C9 13.6534 9 13.28 9 12.5333V3.46659C9 2.71985 9 2.34648 8.85467 2.06126C8.72684 1.81038 8.52287 1.60641 8.27199 1.47858C7.98677 1.33325 7.6134 1.33325 6.86667 1.33325H3.13333C2.3866 1.33325 2.01323 1.33325 1.72801 1.47858C1.47713 1.60641 1.27316 1.81038 1.14532 2.06126C1 2.34648 1 2.71985 1 3.46659V12.5333C1 13.28 1 13.6534 1.14532 13.9386C1.27316 14.1895 1.47713 14.3934 1.72801 14.5213C2.01323 14.6666 2.3866 14.6666 3.13333 14.6666Z" stroke="#667085" stroke-width="0.8" stroke-linecap="round"/>
</svg>
