<svg width="49" height="29" viewBox="0 0 49 29" fill="none" xmlns="http://www.w3.org/2000/svg">
<path fill-rule="evenodd" clip-rule="evenodd" d="M30.4199 25.426V9.56202H24.617V25.426H30.4199ZM25.6602 17.5739C25.6602 17.4479 25.5581 17.3457 25.432 17.3457C25.306 17.3457 25.2038 17.4479 25.2038 17.5739V18.9708C25.2038 19.0968 25.306 19.199 25.432 19.199C25.5581 19.199 25.6602 19.0968 25.6602 18.9708V17.5739Z" fill="#FFBE45"/>
<path fill-rule="evenodd" clip-rule="evenodd" d="M18.3577 25.426H24.3888V9.56202H18.3577V19.9403V25.426ZM23.8346 17.5739C23.8346 17.4479 23.7324 17.3457 23.6064 17.3457C23.4804 17.3457 23.3782 17.4479 23.3782 17.5739V18.9708C23.3782 19.0968 23.4804 19.199 23.6064 19.199C23.7324 19.199 23.8346 19.0968 23.8346 18.9708V17.5739Z" fill="#FFBE45"/>
<path d="M2.04102 0.740479C1.51002 0.740479 1.07957 1.17093 1.07957 1.70193V3.18904C1.07957 3.72003 1.51002 4.15049 2.04102 4.15049H3.36159H45.6116H46.6874H46.8018C47.3328 4.15049 47.7632 3.72003 47.7632 3.18904V1.70193C47.7632 1.17093 47.3328 0.740479 46.8018 0.740479H35.1143H14.1197H2.04102Z" fill="url(#paint0_linear_102_754)"/>
<path d="M24.3888 9.56202V25.426H24.617V9.56202H24.3888Z" fill="black"/>
<path d="M23.3782 17.5739C23.3782 17.4479 23.4804 17.3457 23.6064 17.3457C23.7324 17.3457 23.8346 17.4479 23.8346 17.5739V18.9708C23.8346 19.0968 23.7324 19.199 23.6064 19.199C23.4804 19.199 23.3782 19.0968 23.3782 18.9708V17.5739Z" fill="black"/>
<path d="M25.2038 17.5739C25.2038 17.4479 25.306 17.3457 25.432 17.3457C25.5581 17.3457 25.6602 17.4479 25.6602 17.5739V18.9708C25.6602 19.0968 25.5581 19.199 25.432 19.199C25.306 19.199 25.2038 19.0968 25.2038 18.9708V17.5739Z" fill="black"/>
<path d="M45.6116 25.426H30.4199H24.617H24.3888H18.3577H3.36159L1.52867 25.5276C1.05724 25.5538 0.688364 25.9437 0.688364 26.4158V28.2429H48.4805V26.419C48.4805 25.9456 48.1096 25.5551 47.6368 25.5306L45.6116 25.426Z" fill="#FFBE45"/>
<path d="M30.6655 9.56202C31.034 9.56202 31.3327 9.26332 31.3327 8.89484C31.3327 8.52637 31.034 8.22767 30.6655 8.22767H17.9817C17.6132 8.22767 17.3145 8.52637 17.3145 8.89484C17.3145 9.26332 17.6132 9.56202 17.9817 9.56202H18.3577H24.3888H24.617H30.4199H30.6655Z" fill="#FEF0C7"/>
<path d="M15.5541 11.707V10.9705H14.1197L9.94686 14.6636L5.77402 18.3568V20.0229V21.1522L15.5541 12.1718V11.707Z" fill="#FEF0C7"/>
<path fill-rule="evenodd" clip-rule="evenodd" d="M15.5541 12.1718V12.7725L5.77402 21.8677V21.1522L15.5541 12.1718ZM9.94686 14.6636L14.1197 10.9705H5.77402V16.6907V18.3568L9.94686 14.6636Z" fill="#FFBE45"/>
<path d="M42.9478 13.3394V12.7388L33.1677 21.834H33.8064H34.2948L42.9478 13.9414V13.3394Z" fill="#FEF0C7"/>
<path d="M42.9478 21.834V15.0056V13.9414L34.2948 21.834H42.9478Z" fill="#FFBE45"/>
<path d="M33.1677 10.9368V16.657V18.3231L37.3406 14.63L41.5134 10.9368H33.1677Z" fill="#FFBE45"/>
<path d="M42.9478 11.6733V10.9368H41.5134L37.3406 14.63L33.1677 18.3231V19.9893V21.1186L42.9478 12.1381V11.6733Z" fill="#FEF0C7"/>
<path d="M33.1677 21.1186V21.834L42.9478 12.7388V12.1381L33.1677 21.1186Z" fill="#FFBE45"/>
<path d="M15.5541 13.3731V12.7725L5.77402 21.8677H6.4127H6.89342L15.5541 13.8212V13.3731Z" fill="#FEF0C7"/>
<path d="M15.5541 21.8677V15.0393V13.8212L6.89342 21.8677H15.5541Z" fill="#FFBE45"/>
<path fill-rule="evenodd" clip-rule="evenodd" d="M3.36159 25.426V5.83663H45.6116V25.426H30.4199V9.56202H30.6655C31.034 9.56202 31.3327 9.26332 31.3327 8.89484C31.3327 8.52637 31.034 8.22767 30.6655 8.22767H17.9817C17.6132 8.22767 17.3145 8.52637 17.3145 8.89484C17.3145 9.26332 17.6132 9.56202 17.9817 9.56202H18.3577V19.9403V25.426H3.36159ZM15.5541 11.707V10.9705H14.1197H5.77402V16.6907V18.3568V20.0229V21.1522V21.8677H6.4127H6.89342H15.5541V15.0393V13.8212V13.3731V12.7725V12.1718V11.707ZM42.9478 11.6733V10.9368H41.5134H33.1677V16.657V18.3231V19.9893V21.1186V21.834H33.8064H34.2948H42.9478V15.0056V13.9414V13.3394V12.7388V12.1381V11.6733Z" fill="#93370D"/>
<path d="M45.6116 4.15049H3.36159V5.83663H45.6116V4.15049Z" fill="#882B00"/>
<defs>
<linearGradient id="paint0_linear_102_754" x1="24.5" y1="0.841588" x2="24.5" y2="3.00485" gradientUnits="userSpaceOnUse">
<stop stop-color="#F6D9A4"/>
<stop offset="0.91" stop-color="#FFA809"/>
</linearGradient>
</defs>
</svg>
