<svg width="13" height="12" viewBox="0 0 13 12" fill="none" xmlns="http://www.w3.org/2000/svg">
<path d="M12.0001 6.40008C12.221 6.40008 12.4001 6.221 12.4001 6.00008C12.4001 5.77917 12.221 5.60008 12.0001 5.60008V6.40008ZM6.00008 5.60008C5.77917 5.60008 5.60008 5.77917 5.60008 6.00008C5.60008 6.221 5.77917 6.40008 6.00008 6.40008V5.60008ZM10.9496 3.71724C10.7934 3.56103 10.5401 3.56103 10.3839 3.71724C10.2277 3.87345 10.2277 4.12671 10.3839 4.28292L10.9496 3.71724ZM11.9125 5.24583L11.6297 5.52868L11.6297 5.52868L11.9125 5.24583ZM11.9125 6.75433L12.1953 7.03717L12.1953 7.03717L11.9125 6.75433ZM10.3839 7.71724C10.2277 7.87345 10.2277 8.12671 10.3839 8.28292C10.5401 8.43913 10.7934 8.43913 10.9496 8.28292L10.3839 7.71724ZM12.358 5.79407L11.9776 5.91768L11.9776 5.91768L12.358 5.79407ZM12.358 6.20609L11.9776 6.08248L11.9776 6.08248L12.358 6.20609ZM2.22884 2.22885L2.51169 2.51169L2.22884 2.22885ZM2.22885 9.77132L1.946 10.0542L2.22885 9.77132ZM8.46657 1.72606C8.65783 1.83661 8.9025 1.77117 9.01305 1.57991C9.1236 1.38865 9.05816 1.14398 8.8669 1.03343L8.46657 1.72606ZM8.8669 10.9667C9.05816 10.8562 9.1236 10.6115 9.01305 10.4203C8.9025 10.229 8.65783 10.1636 8.46657 10.2741L8.8669 10.9667ZM12.0001 5.60008H6.00008V6.40008H12.0001V5.60008ZM10.3839 4.28292L11.6297 5.52868L12.1953 4.96299L10.9496 3.71724L10.3839 4.28292ZM11.6297 6.47149L10.3839 7.71724L10.9496 8.28292L12.1953 7.03717L11.6297 6.47149ZM11.6297 5.52868C11.7663 5.66535 11.8516 5.75106 11.9108 5.82074C11.9669 5.88685 11.9756 5.91179 11.9776 5.91768L12.7384 5.67046C12.6909 5.52413 12.6089 5.40695 12.5206 5.303C12.4354 5.20262 12.3227 5.09033 12.1953 4.96299L11.6297 5.52868ZM12.1953 7.03717C12.3227 6.90983 12.4354 6.79754 12.5206 6.69716C12.6089 6.59321 12.6909 6.47603 12.7384 6.3297L11.9776 6.08248C11.9756 6.08837 11.9669 6.11331 11.9108 6.17942C11.8516 6.2491 11.7663 6.33482 11.6297 6.47149L12.1953 7.03717ZM11.9776 5.91768C11.995 5.97123 11.995 6.02893 11.9776 6.08248L12.7384 6.3297C12.808 6.11547 12.808 5.8847 12.7384 5.67046L11.9776 5.91768ZM1.946 1.946C-0.293004 4.18501 -0.293003 7.81515 1.946 10.0542L2.51169 9.48848C0.585102 7.56189 0.585101 4.43828 2.51169 2.51169L1.946 1.946ZM8.8669 1.03343C6.67442 -0.233815 3.82224 0.069768 1.946 1.946L2.51169 2.51169C4.12538 0.897991 6.57979 0.635506 8.46657 1.72606L8.8669 1.03343ZM1.946 10.0542C3.82224 11.9304 6.67442 12.234 8.8669 10.9667L8.46657 10.2741C6.57979 11.3647 4.12539 11.1022 2.51169 9.48848L1.946 10.0542Z" fill="#D13520"/>
</svg>
