<svg width="32" height="37" viewBox="0 0 32 37" fill="none" xmlns="http://www.w3.org/2000/svg">
<path fill-rule="evenodd" clip-rule="evenodd" d="M5.0639 11.3627C2.26747 11.3627 0.0147617 13.6563 0.0651397 16.4523L0.347354 32.1152C0.828723 33.2273 2.47322 34.7698 5.88202 34.997L26.7893 34.7698C27.7031 34.7698 29.8247 33.9517 31.0007 30.6792L30.7411 16.2722C30.692 13.5465 28.4684 11.3627 25.7423 11.3627H20.4262H10.6543H5.0639ZM25.3013 19.032C25.3694 16.2055 23.0822 13.885 20.2551 13.9122L6.74297 14.0421C4.00066 14.0685 1.79146 16.299 1.79146 19.0414V27.7249C1.79146 30.4861 4.02984 32.7245 6.79103 32.7245H20.0908C22.805 32.7245 25.0235 30.5588 25.0889 27.8454L25.3013 19.032ZM29.9709 25.6796H25.8803C25.7548 25.6796 25.6531 25.7814 25.6531 25.9069C25.6531 26.0324 25.7548 26.1341 25.8803 26.1341H29.9709C30.0964 26.1341 30.1981 26.0324 30.1981 25.9069C30.1981 25.7814 30.0964 25.6796 29.9709 25.6796ZM29.9709 26.5886H25.8803C25.7548 26.5886 25.6531 26.6904 25.6531 26.8159C25.6531 26.9414 25.7548 27.0432 25.8803 27.0432H29.9709C30.0964 27.0432 30.1981 26.9414 30.1981 26.8159C30.1981 26.6904 30.0964 26.5886 29.9709 26.5886ZM29.9709 27.4977H25.8803C25.7548 27.4977 25.6531 27.5994 25.6531 27.7249C25.6531 27.8504 25.7548 27.9522 25.8803 27.9522H29.9709C30.0964 27.9522 30.1981 27.8504 30.1981 27.7249C30.1981 27.5994 30.0964 27.4977 29.9709 27.4977ZM29.9709 28.4067H25.8803C25.7548 28.4067 25.6531 28.5084 25.6531 28.6339C25.6531 28.7594 25.7548 28.8612 25.8803 28.8612H29.9709C30.0964 28.8612 30.1981 28.7594 30.1981 28.6339C30.1981 28.5084 30.0964 28.4067 29.9709 28.4067ZM29.9709 29.3157H25.8803C25.7548 29.3157 25.6531 29.4174 25.6531 29.5429C25.6531 29.6684 25.7548 29.7702 25.8803 29.7702H29.9709C30.0964 29.7702 30.1981 29.6684 30.1981 29.5429C30.1981 29.4174 30.0964 29.3157 29.9709 29.3157ZM27.4711 24.3161C28.4752 24.3161 29.2891 23.5022 29.2891 22.4981C29.2891 21.494 28.4752 20.6801 27.4711 20.6801C26.467 20.6801 25.6531 21.494 25.6531 22.4981C25.6531 23.5022 26.467 24.3161 27.4711 24.3161ZM27.4711 19.771C28.4752 19.771 29.2891 18.9571 29.2891 17.953C29.2891 16.9489 28.4752 16.135 27.4711 16.135C26.467 16.135 25.6531 16.9489 25.6531 17.953C25.6531 18.9571 26.467 19.771 27.4711 19.771Z" fill="#F04438"/>
<path fill-rule="evenodd" clip-rule="evenodd" d="M1.79146 19.0414C1.79146 16.299 4.00066 14.0685 6.74297 14.0421L20.2551 13.9122C23.0822 13.885 25.3694 16.2055 25.3013 19.032L25.0889 27.8454C25.0235 30.5588 22.805 32.7245 20.0908 32.7245H6.79103C4.02984 32.7245 1.79146 30.4861 1.79146 27.7249V19.0414ZM24.1776 18.9711C24.2389 16.67 22.3903 14.7715 20.0885 14.7715H6.96339C4.72579 14.7715 2.90343 16.5694 2.8732 18.8068L2.7559 27.4867C2.72532 29.7501 4.53867 31.608 6.8021 31.6323L19.8093 31.7722C22.0429 31.7962 23.8828 30.0239 23.9424 27.7909L24.1776 18.9711Z" fill="#7A271A"/>
<path d="M10.6543 11.3627H20.4262C20.1241 10.6073 19.2997 9.63102 17.9265 9.00793C17.7378 8.92235 17.5389 8.84343 17.3295 8.77266C16.77 8.58361 16.1362 8.45272 15.4267 8.40837C14.5466 8.35337 13.7899 8.50501 13.1541 8.77266C12.9858 8.84352 12.826 8.9225 12.6746 9.00793C11.5077 9.66641 10.8414 10.708 10.6543 11.3627Z" fill="#7A271A"/>
<path d="M23.2024 0.276325C23.0605 0.134457 22.8238 0.160307 22.7159 0.329449L17.3295 8.77266C17.5389 8.84343 17.7378 8.92235 17.9265 9.00793L23.2451 0.666975C23.3242 0.542858 23.3064 0.380413 23.2024 0.276325Z" fill="#7A271A"/>
<path d="M13.1541 8.77266L8.36873 0.375797C8.25295 0.172644 7.98922 0.110226 7.79466 0.23993C7.61478 0.359855 7.56146 0.600299 7.6738 0.785018L12.6746 9.00793C12.826 8.9225 12.9858 8.84352 13.1541 8.77266Z" fill="#7A271A"/>
<path d="M0.347354 32.1152V32.4257C0.347354 33.2195 0.499635 34.031 1.00095 34.6464C1.85353 35.6931 3.39163 36.728 6.33653 36.5878C11.1089 36.3605 22.017 36.5878 26.7893 36.1333C27.7638 35.904 29.7756 34.9412 30.7452 32.8526C30.9654 32.3781 31.0218 31.8488 31.0123 31.3258L31.0007 30.6792C29.8247 33.9517 27.7031 34.7698 26.7893 34.7698L5.88202 34.997C2.47322 34.7698 0.828723 33.2273 0.347354 32.1152Z" fill="#912018"/>
<path d="M2.8732 18.8068C2.90343 16.5694 4.72579 14.7715 6.96339 14.7715H20.0885C22.3903 14.7715 24.2389 16.67 24.1776 18.9711L23.9424 27.7909C23.8828 30.0239 22.0429 31.7962 19.8093 31.7722L6.8021 31.6323C4.53867 31.608 2.72532 29.7501 2.7559 27.4867L2.8732 18.8068Z" fill="url(#paint0_radial_149_4369)"/>
<path d="M25.8803 29.3157H29.9709C30.0964 29.3157 30.1981 29.4174 30.1981 29.5429C30.1981 29.6684 30.0964 29.7702 29.9709 29.7702H25.8803C25.7548 29.7702 25.6531 29.6684 25.6531 29.5429C25.6531 29.4174 25.7548 29.3157 25.8803 29.3157Z" fill="#7A271A"/>
<path d="M25.8803 28.4067H29.9709C30.0964 28.4067 30.1981 28.5084 30.1981 28.6339C30.1981 28.7594 30.0964 28.8612 29.9709 28.8612H25.8803C25.7548 28.8612 25.6531 28.7594 25.6531 28.6339C25.6531 28.5084 25.7548 28.4067 25.8803 28.4067Z" fill="#7A271A"/>
<path d="M25.8803 27.4977H29.9709C30.0964 27.4977 30.1981 27.5994 30.1981 27.7249C30.1981 27.8504 30.0964 27.9522 29.9709 27.9522H25.8803C25.7548 27.9522 25.6531 27.8504 25.6531 27.7249C25.6531 27.5994 25.7548 27.4977 25.8803 27.4977Z" fill="#7A271A"/>
<path d="M25.8803 26.5886H29.9709C30.0964 26.5886 30.1981 26.6904 30.1981 26.8159C30.1981 26.9414 30.0964 27.0432 29.9709 27.0432H25.8803C25.7548 27.0432 25.6531 26.9414 25.6531 26.8159C25.6531 26.6904 25.7548 26.5886 25.8803 26.5886Z" fill="#7A271A"/>
<path d="M25.8803 25.6796H29.9709C30.0964 25.6796 30.1981 25.7814 30.1981 25.9069C30.1981 26.0324 30.0964 26.1341 29.9709 26.1341H25.8803C25.7548 26.1341 25.6531 26.0324 25.6531 25.9069C25.6531 25.7814 25.7548 25.6796 25.8803 25.6796Z" fill="#7A271A"/>
<path fill-rule="evenodd" clip-rule="evenodd" d="M29.2891 17.953C29.2891 18.9571 28.4752 19.771 27.4711 19.771C26.467 19.771 25.6531 18.9571 25.6531 17.953C25.6531 16.9489 26.467 16.135 27.4711 16.135C28.4752 16.135 29.2891 16.9489 29.2891 17.953ZM27.0166 18.862C27.5186 18.862 27.9256 18.455 27.9256 17.953C27.9256 17.451 27.5186 17.044 27.0166 17.044C26.5146 17.044 26.1076 17.451 26.1076 17.953C26.1076 18.455 26.5146 18.862 27.0166 18.862Z" fill="#7A271A"/>
<path fill-rule="evenodd" clip-rule="evenodd" d="M29.2891 22.4981C29.2891 23.5022 28.4752 24.3161 27.4711 24.3161C26.467 24.3161 25.6531 23.5022 25.6531 22.4981C25.6531 21.494 26.467 20.6801 27.4711 20.6801C28.4752 20.6801 29.2891 21.494 29.2891 22.4981ZM27.0166 23.4071C27.5186 23.4071 27.9256 23.0001 27.9256 22.4981C27.9256 21.996 27.5186 21.5891 27.0166 21.5891C26.5146 21.5891 26.1076 21.996 26.1076 22.4981C26.1076 23.0001 26.5146 23.4071 27.0166 23.4071Z" fill="#7A271A"/>
<path d="M27.9256 17.953C27.9256 18.455 27.5186 18.862 27.0166 18.862C26.5146 18.862 26.1076 18.455 26.1076 17.953C26.1076 17.451 26.5146 17.044 27.0166 17.044C27.5186 17.044 27.9256 17.451 27.9256 17.953Z" fill="#F04438"/>
<path d="M27.9256 22.4981C27.9256 23.0001 27.5186 23.4071 27.0166 23.4071C26.5146 23.4071 26.1076 23.0001 26.1076 22.4981C26.1076 21.996 26.5146 21.5891 27.0166 21.5891C27.5186 21.5891 27.9256 21.996 27.9256 22.4981Z" fill="#F04438"/>
<defs>
<radialGradient id="paint0_radial_149_4369" cx="0" cy="0" r="1" gradientUnits="userSpaceOnUse" gradientTransform="translate(23.1533 15.6805) rotate(137.353) scale(11.7404 9.96097)">
<stop stop-color="white"/>
<stop offset="1" stop-color="#C5E8FD"/>
</radialGradient>
</defs>
</svg>
