<svg width="16" height="16" viewBox="0 0 16 16" fill="none" xmlns="http://www.w3.org/2000/svg">
<path d="M8.00008 9.33341C9.10465 9.33341 10.0001 8.43798 10.0001 7.33341C10.0001 6.22884 9.10465 5.33341 8.00008 5.33341C6.89551 5.33341 6.00008 6.22884 6.00008 7.33341C6.00008 8.43798 6.89551 9.33341 8.00008 9.33341ZM8.00008 9.33341C6.15913 9.33341 4.66675 10.8258 4.66675 12.6667M8.00008 9.33341C9.84103 9.33341 11.3334 10.8258 11.3334 12.6667M6.00008 15.3334H10.0001C11.8669 15.3334 12.8003 15.3334 13.5134 14.9701C14.1406 14.6505 14.6505 14.1406 14.9701 13.5134C15.3334 12.8003 15.3334 11.8669 15.3334 10.0001V6.00008C15.3334 4.13324 15.3334 3.19982 14.9701 2.48678C14.6505 1.85957 14.1406 1.34964 13.5134 1.03006C12.8003 0.666748 11.8669 0.666748 10.0001 0.666748H6.00008C4.13324 0.666748 3.19982 0.666748 2.48678 1.03006C1.85957 1.34964 1.34964 1.85957 1.03006 2.48678C0.666748 3.19982 0.666748 4.13324 0.666748 6.00008V10.0001C0.666748 11.8669 0.666748 12.8003 1.03006 13.5134C1.34964 14.1406 1.85957 14.6505 2.48678 14.9701C3.19982 15.3334 4.13324 15.3334 6.00008 15.3334ZM5.46675 12.6667H10.5334C11.2802 12.6667 11.6535 12.6667 11.9387 12.5214C12.1896 12.3936 12.3936 12.1896 12.5214 11.9387C12.6667 11.6535 12.6667 11.2802 12.6667 10.5334V5.46675C12.6667 4.72001 12.6667 4.34664 12.5214 4.06143C12.3936 3.81054 12.1896 3.60657 11.9387 3.47874C11.6535 3.33341 11.2802 3.33341 10.5334 3.33341H5.46675C4.72001 3.33341 4.34664 3.33341 4.06143 3.47874C3.81054 3.60657 3.60657 3.81054 3.47874 4.06143C3.33341 4.34664 3.33341 4.72001 3.33341 5.46675V10.5334C3.33341 11.2802 3.33341 11.6535 3.47874 11.9387C3.60657 12.1896 3.81054 12.3936 4.06143 12.5214C4.34664 12.6667 4.72001 12.6667 5.46675 12.6667Z" stroke="#667085" stroke-width="0.8"/>
</svg>
